<svg width="187" height="151" viewBox="0 0 187 151" fill="none" xmlns="http://www.w3.org/2000/svg">
<path fill-rule="evenodd" clip-rule="evenodd" d="M98.6381 77.7198L142.31 22.854C144.207 20.4704 143.813 17.0001 141.43 15.1029C139.046 13.2056 135.576 13.5998 133.679 15.9834L93.5107 66.4467L53.3429 15.9834C51.4456 13.5998 47.9753 13.2056 45.5918 15.1029C43.2082 17.0001 42.814 20.4704 44.7113 22.854L87.6059 76.743V132.093C87.6059 135.139 90.0755 137.609 93.122 137.609C96.1685 137.609 98.6381 135.139 98.6381 132.093V77.7198Z" fill="black"/>
<path d="M24.4849 150.756H32.4867V141.262H24.8918C20.9587 141.262 17.8393 138.143 17.8393 134.21V90.5389C17.8393 87.1483 16.89 83.8933 14.8556 81.0452L11.0582 75.7559L14.8556 70.4665C16.89 67.6184 17.8393 64.4991 17.8393 60.9729V17.302C17.8393 13.5045 20.9587 10.3852 24.8918 10.3852H32.4867V0.755859H24.4849C14.9912 0.755859 8.34568 7.53706 8.34568 16.8951V60.9729C8.34568 62.4647 7.80318 63.821 7.12506 65.0416L1.29324 73.0434C0.208244 74.6709 0.208244 76.8409 1.29324 78.4683L7.12506 86.4702C7.80318 87.6908 8.34568 89.047 8.34568 90.5389V134.752C8.34568 143.975 14.9912 150.756 24.4849 150.756Z" fill="black"/>
<path d="M162.537 150.756H154.535V141.262H162.13C166.063 141.262 169.182 138.143 169.182 134.21V90.5389C169.182 87.1483 170.132 83.8933 172.166 81.0452L175.963 75.7559L172.166 70.4665C170.132 67.6184 169.182 64.4991 169.182 60.9729V17.302C169.182 13.5045 166.063 10.3852 162.13 10.3852H154.535V0.755859H162.537C172.03 0.755859 178.676 7.53706 178.676 16.8951V60.9729C178.676 62.4647 179.218 63.821 179.896 65.0416L185.728 73.0434C186.813 74.6709 186.813 76.8409 185.728 78.4683L179.896 86.4702C179.218 87.6908 178.676 89.047 178.676 90.5389V134.752C178.676 143.975 172.03 150.756 162.537 150.756Z" fill="black"/>
</svg>
