<svg width="78" height="21" viewBox="0 0 78 21" fill="none" xmlns="http://www.w3.org/2000/svg">
<path d="M51.647 1.41192C51.647 0.934707 52.0338 0.547852 52.511 0.547852V0.547852C52.9882 0.547852 53.3751 0.934707 53.3751 1.41192V19.6838C53.3751 20.161 52.9882 20.5479 52.511 20.5479V20.5479C52.0338 20.5479 51.647 20.161 51.647 19.6838V1.41192Z" fill="white"/>
<path d="M55.1694 1.41192C55.1694 0.934707 55.5563 0.547852 56.0335 0.547852V0.547852C56.5107 0.547852 56.8976 0.934707 56.8976 1.41192V19.6838C56.8976 20.161 56.5107 20.5479 56.0335 20.5479V20.5479C55.5563 20.5479 55.1694 20.161 55.1694 19.6838V1.41192Z" fill="white"/>
<path fill-rule="evenodd" clip-rule="evenodd" d="M68.1454 1.191C67.8163 1.17901 67.495 1.35677 67.3392 1.67106L58.6042 19.3C58.3923 19.7276 58.5672 20.246 58.9948 20.4578C59.4224 20.6697 59.9408 20.4948 60.1527 20.0672L68.1454 3.93637L76.1382 20.0672C76.3501 20.4948 76.8684 20.6697 77.296 20.4578C77.7236 20.246 77.8985 19.7276 77.6866 19.3L68.9516 1.67106C68.7959 1.35677 68.4746 1.17901 68.1454 1.191Z" fill="white"/>
<path fill-rule="evenodd" clip-rule="evenodd" d="M35.3548 1.16846C34.8776 1.16846 34.4907 1.55531 34.4907 2.03252V19.6838C34.4907 20.161 34.8776 20.5478 35.3548 20.5478H49.221C49.6982 20.5478 50.085 20.161 50.085 19.6838C50.085 19.2066 49.6982 18.8197 49.221 18.8197H36.2189V2.03252C36.2189 1.55531 35.832 1.16846 35.3548 1.16846Z" fill="white"/>
<path fill-rule="evenodd" clip-rule="evenodd" d="M8.64952 11.1665L15.4905 2.57214C15.7877 2.19877 15.7259 1.65517 15.3526 1.35798C14.9792 1.06078 14.4356 1.12253 14.1384 1.4959L7.84635 9.40067L1.55431 1.4959C1.25711 1.12253 0.71351 1.06078 0.34014 1.35798C-0.0332299 1.65517 -0.0949812 2.19877 0.202214 2.57214L6.92139 11.0135V19.6837C6.92139 20.161 7.30825 20.5478 7.78546 20.5478C8.26267 20.5478 8.64952 20.161 8.64952 19.6837V11.1665Z" fill="white"/>
<path fill-rule="evenodd" clip-rule="evenodd" d="M17.2749 2.06329C17.2749 1.58607 17.6618 1.19922 18.139 1.19922C18.6162 1.19922 19.003 1.58607 19.003 2.06328V11.8516C19.003 11.8981 18.9994 11.9437 18.9923 11.9882H19.0058C19.004 12.0557 19.003 12.1236 19.003 12.1917C19.003 15.97 21.8271 18.8194 25.0566 18.8194C28.2861 18.8194 31.1102 15.97 31.1102 12.1917C31.1102 12.1236 31.1093 12.0557 31.1075 11.9882H31.121C31.1139 11.9437 31.1102 11.8981 31.1102 11.8516V2.06329C31.1102 1.58607 31.4971 1.19922 31.9743 1.19922C32.4515 1.19922 32.8384 1.58607 32.8384 2.06328V11.8516C32.8384 11.8981 32.8347 11.9437 32.8276 11.9882H32.8361C32.8376 12.0559 32.8384 12.1237 32.8384 12.1917C32.8384 16.8065 29.3544 20.5476 25.0566 20.5476C20.7589 20.5476 17.2749 16.8065 17.2749 12.1917C17.2749 12.1237 17.2757 12.0559 17.2772 11.9882H17.2856C17.2786 11.9437 17.2749 11.8981 17.2749 11.8516V2.06329Z" fill="white"/>
</svg>
