<svg width="70" height="41" viewBox="0 0 70 41" fill="none" xmlns="http://www.w3.org/2000/svg">
<path d="M18.8052 19.1056C19.3377 19.1352 19.5448 19.3719 19.4265 19.8157C19.3377 20.2299 19.1158 20.6885 18.7608 21.1915C18.4058 21.6649 17.9915 22.0939 17.5182 22.4785C17.0744 22.8631 16.7489 23.0406 16.5418 23.011C16.3643 23.011 16.0388 23.0998 15.5654 23.2773C15.0921 23.4548 14.5299 23.7063 13.879 24.0318C13.2577 24.3276 12.5772 24.6827 11.8375 25.0969C11.1274 25.5111 10.4174 25.9549 9.70729 26.4283C9.85522 26.9609 10.0032 27.5526 10.1511 28.2035C10.299 28.8544 10.5061 29.5497 10.7724 30.2893C11.0387 31.029 11.4825 31.6207 12.1038 32.0645C12.7251 32.5083 13.4648 32.6119 14.3228 32.3752C14.8849 32.2273 15.5211 31.961 16.2311 31.5764C16.9412 31.1622 17.5921 30.7627 18.1839 30.3781C18.4797 30.2006 18.672 30.1858 18.7608 30.3337C18.8496 30.4521 18.8348 30.6888 18.7164 31.0438C18.5981 31.3693 18.3762 31.7687 18.0507 32.2421C17.7253 32.6859 17.2963 33.1445 16.7637 33.6178C16.2607 34.0912 15.8169 34.4759 15.4323 34.7717C15.0477 35.0676 14.6778 35.2895 14.3228 35.4374C13.9973 35.5854 13.6867 35.6741 13.3908 35.7037C13.095 35.7629 12.7843 35.7925 12.4588 35.7925C11.8079 35.7925 11.157 35.5262 10.5061 34.9936C9.85522 34.4611 9.26349 33.8397 8.73093 33.1297C8.19837 32.39 7.76937 31.6207 7.44391 30.8219C7.11846 29.9935 6.95574 29.2834 6.95574 28.6917C6.74863 28.8988 6.54152 29.1059 6.33442 29.313C6.1569 29.5201 5.935 29.6976 5.66872 29.8456C4.84029 31.7983 4.13021 33.3368 3.53848 34.4611C2.97634 35.6149 2.44378 36.1623 1.94081 36.1031C1.61535 36.0735 1.34907 35.8812 1.14197 35.5262C0.934861 35.1711 0.786928 34.7569 0.698168 34.2835C0.579822 33.7806 0.535442 33.2776 0.565028 32.7746C0.594615 32.2717 0.698168 31.8574 0.875688 31.532C0.994034 31.3249 1.24552 30.8367 1.63015 30.0674C2.01477 29.2686 2.48816 28.307 3.0503 27.1828C3.61245 26.0289 4.21897 24.7714 4.86988 23.4105C5.55037 22.0199 6.23086 20.6293 6.91136 19.2388C7.59185 17.8482 8.24275 16.502 8.86407 15.2002C9.51498 13.8984 10.0919 12.7593 10.5949 11.7829C11.5121 9.97814 12.1482 8.42484 12.5032 7.12303C12.8878 5.82122 13.1541 5.00759 13.3021 4.68214C13.45 4.35669 13.7902 4.13479 14.3228 4.01644C14.8554 3.89809 15.5506 4.07561 16.4087 4.549C16.7341 4.72652 17.0004 5.02238 17.2075 5.4366C17.4442 5.85081 17.4886 6.17626 17.3406 6.41296C17.2815 6.47213 17.0744 6.81237 16.7193 7.43369C16.3643 8.05501 15.9057 8.85385 15.3435 9.83021C14.811 10.8066 14.1897 11.9161 13.4796 13.1587C12.7991 14.4013 12.1038 15.7032 11.3937 17.0641C10.7132 18.3955 10.0327 19.7417 9.35225 21.1027C8.70134 22.4637 8.1392 23.7359 7.66581 24.9194C8.64217 24.2093 9.6777 23.4992 10.7724 22.7891C11.8671 22.0791 12.9174 21.443 13.9234 20.8808C14.9589 20.3187 15.9057 19.8749 16.7637 19.5494C17.6217 19.224 18.3022 19.076 18.8052 19.1056Z" fill="white"/>
<path d="M37.9239 3.97206C37.5689 4.44545 37.0659 5.11114 36.415 5.96916C35.7937 6.79758 34.9948 7.92187 34.0185 9.34203C33.0717 10.7622 31.977 12.5374 30.7344 14.6676C29.4917 16.7979 28.1011 19.3867 26.5626 22.4341C24.9946 25.4815 23.7667 27.9964 22.8791 29.9787C21.9915 31.961 21.311 33.5587 20.8376 34.7717C20.3642 36.0144 20.0388 36.9611 19.8613 37.612C19.6838 38.2629 19.5358 38.7659 19.4175 39.121C19.1808 39.8606 18.8109 40.3636 18.308 40.6299C17.8346 40.9257 17.3612 40.7482 16.8878 40.0973C16.4144 39.476 16.2665 38.5588 16.444 37.3458C16.592 36.1327 17.0062 34.7717 17.6867 33.2628C17.8938 32.7598 18.2192 31.961 18.663 30.8663C19.1364 29.7716 19.6838 28.4994 20.3051 27.0496C20.9264 25.5999 21.5921 24.0466 22.3022 22.3897C23.0122 20.7329 23.7371 19.1056 24.4768 17.5079C25.2164 15.8807 25.9413 14.357 26.6514 12.9368C27.3911 11.4871 28.0716 10.2592 28.6929 9.25327C30.5568 6.20585 31.9918 4.01644 32.9977 2.68504C34.0333 1.32406 34.8173 0.687947 35.3499 0.776706C35.6161 0.83588 35.9416 0.96902 36.3262 1.17613C36.7108 1.35365 37.0807 1.56075 37.4357 1.79744C37.7908 2.00455 38.0866 2.22645 38.3233 2.46314C38.5896 2.69984 38.7227 2.87736 38.7227 2.9957C38.7819 3.26198 38.7079 3.4395 38.5008 3.52826C38.2937 3.58743 38.1014 3.73537 37.9239 3.97206Z" fill="white"/>
<path d="M38.6683 22.8779C38.5204 22.8779 38.1209 23.0554 37.47 23.4105C36.8191 23.7359 36.1239 24.1501 35.3842 24.6531C34.6445 25.1265 33.9788 25.6295 33.3871 26.162C32.7954 26.6946 32.4995 27.1236 32.4995 27.449C32.5587 27.449 32.7806 27.3603 33.1652 27.1828C33.5498 27.0052 34.0084 26.7981 34.541 26.5614C35.1031 26.3247 35.6801 26.0733 36.2718 25.807C36.8931 25.5407 37.47 25.304 38.0026 25.0969C38.5647 24.8602 39.0233 24.6827 39.3784 24.5643C39.7334 24.4164 39.9405 24.3572 39.9997 24.3868C40.3252 24.6235 40.5323 24.949 40.621 25.3632C40.7394 25.7478 40.6654 26.0881 40.3991 26.3839C40.2216 26.591 40.0293 26.8129 39.8222 27.0496C39.6447 27.2863 39.4967 27.4934 39.3784 27.6709C39.2896 27.8485 39.26 27.9668 39.2896 28.026C39.3192 28.0556 39.4819 27.9816 39.7778 27.8041C39.9553 27.6857 40.3104 27.523 40.8429 27.3159C41.3755 27.0792 41.982 26.8277 42.6625 26.5614C43.3726 26.2656 44.127 25.9697 44.9259 25.6738C45.7543 25.378 46.5383 25.0969 47.278 24.8306C48.0177 24.5348 48.6834 24.2833 49.2751 24.0762C49.8668 23.8691 50.2958 23.7211 50.5621 23.6324C50.9763 23.4844 51.213 23.4844 51.2722 23.6324C51.3314 23.7803 51.2426 24.017 51.0059 24.3424C50.7988 24.6679 50.4734 25.0377 50.0296 25.4519C49.6153 25.8662 49.1272 26.2508 48.565 26.6058C48.0029 26.9609 47.2336 27.4194 46.2573 27.9816C45.2809 28.5142 44.275 29.0467 43.2394 29.5793C42.2335 30.1118 41.2867 30.5852 40.3991 30.9994C39.5411 31.4136 38.9494 31.6799 38.6239 31.7983C38.2985 31.9166 37.899 31.9758 37.4257 31.9758C36.9819 31.9462 36.5677 31.8279 36.183 31.6207C35.828 31.4136 35.5617 31.1178 35.3842 30.7331C35.2067 30.3485 35.2215 29.8603 35.4286 29.2686C34.6297 29.742 33.8161 30.1266 32.9877 30.4225C32.1592 30.6888 31.4935 30.9255 30.9906 31.1326C30.7243 31.2213 30.3693 31.2213 29.9255 31.1326C29.4817 31.0438 29.0527 30.8515 28.6384 30.5556C28.2242 30.2598 27.884 29.8603 27.6177 29.3574C27.3514 28.8544 27.2775 28.2331 27.3958 27.4934C27.5141 26.7538 27.8692 26.0289 28.4609 25.3188C29.0822 24.6087 29.7627 23.9578 30.5024 23.3661C31.2716 22.7744 32.0113 22.2862 32.7214 21.9015C33.4611 21.4873 34.0084 21.2358 34.3634 21.1471C34.7185 21.0583 35.1179 20.9992 35.5617 20.9696C36.0351 20.9104 36.4937 20.9104 36.9375 20.9696C37.4109 20.9992 37.8547 21.1027 38.2689 21.2802C38.7127 21.4577 39.0825 21.7092 39.3784 22.0347C39.5263 22.1826 39.5115 22.3749 39.334 22.6116C39.1861 22.8483 38.9642 22.9371 38.6683 22.8779Z" fill="white"/>
<path d="M54.9439 18.5287C55.2694 18.7062 55.5209 18.9873 55.6984 19.3719C55.9055 19.7269 55.9351 20.0228 55.7872 20.2595C55.728 20.3482 55.58 20.5554 55.3434 20.8808C55.1067 21.2063 54.8108 21.6944 54.4558 22.3453C54.1007 22.9963 53.6865 23.8543 53.2131 24.9194C52.7397 25.9549 52.2368 27.2419 51.7042 28.7804C52.5918 28.1295 53.5386 27.3307 54.5445 26.3839C55.5505 25.4076 56.5268 24.4756 57.4736 23.588C58.4204 22.7004 59.2784 21.9607 60.0476 21.369C60.8465 20.7477 61.4826 20.4518 61.956 20.4814C62.9027 20.5406 63.5388 20.8956 63.8643 21.5465C64.2193 22.1974 64.1454 23.085 63.6424 24.2093C63.3761 24.801 63.1542 25.4667 62.9767 26.2064C62.7992 26.9165 62.6808 27.5822 62.6217 28.2035C62.5625 28.8248 62.5773 29.3426 62.666 29.7568C62.7548 30.1414 62.9471 30.2894 63.243 30.2006C63.5388 30.1118 63.9235 29.9491 64.3969 29.7124C64.8998 29.4461 65.4176 29.1651 65.9502 28.8692C66.5123 28.5437 67.0449 28.2331 67.5478 27.9372C68.0804 27.6118 68.5242 27.3307 68.8792 27.094C69.2343 26.8869 69.4562 26.8573 69.5449 27.0052C69.6337 27.1236 69.6041 27.3603 69.4562 27.7153C69.3082 28.0704 69.042 28.5142 68.6573 29.0467C68.3023 29.5497 67.8141 30.0822 67.1928 30.6444C66.5715 31.2065 65.9797 31.7391 65.4176 32.2421C64.885 32.7155 64.3525 33.1149 63.8199 33.4403C63.3169 33.7658 62.814 34.0173 62.311 34.1948C61.808 34.3427 61.2755 34.3723 60.7133 34.2835C60.1512 34.1948 59.7222 33.7806 59.4263 33.0409C59.1304 32.2717 58.9529 31.3988 58.8937 30.4225C58.8346 29.4165 58.879 28.4106 59.0269 27.4047C59.1748 26.3987 59.4263 25.5999 59.7813 25.0081C59.6334 24.9194 59.308 25.1265 58.805 25.6295C58.302 26.1028 57.7103 26.7242 57.0298 27.4934C56.3789 28.2627 55.6688 29.1059 54.8996 30.0231C54.1599 30.9107 53.4646 31.7095 52.8137 32.4196C52.1332 33.1297 51.5563 33.6918 51.0829 34.106C50.6095 34.5202 50.1805 34.8309 49.7959 35.038C49.4408 35.2451 49.1154 35.3635 48.8195 35.393C48.5236 35.4522 48.2278 35.467 47.9319 35.4374C47.636 35.4078 47.3698 35.2007 47.1331 34.8161C46.8964 34.4611 46.7041 34.0469 46.5561 33.5735C46.4082 33.0705 46.3194 32.5675 46.2899 32.0645C46.2899 31.5616 46.3786 31.1769 46.5561 30.9107C46.7337 30.6148 46.8964 30.3485 47.0443 30.1118C47.2218 29.8751 47.3994 29.5941 47.5769 29.2686C47.784 28.9432 48.0059 28.5142 48.2426 27.9816C48.5088 27.449 48.8047 26.7537 49.1302 25.8957C49.4556 25.0673 49.7663 24.2685 50.0621 23.4992C50.3876 22.7004 50.6687 21.9755 50.9054 21.3246C51.1421 20.6737 51.3492 20.1263 51.5267 19.6825C51.7042 19.2092 51.8226 18.8985 51.8817 18.7506C52.0297 18.4251 52.3847 18.2032 52.9468 18.0849C53.509 17.9665 54.1747 18.1145 54.9439 18.5287Z" fill="white"/>
</svg>
