<svg width="78" height="21" viewBox="0 0 78 21" fill="none" xmlns="http://www.w3.org/2000/svg">
<path d="M51.647 1.575C51.647 1.09779 52.0338 0.710938 52.511 0.710938V0.710938C52.9882 0.710938 53.3751 1.09779 53.3751 1.575V19.8469C53.3751 20.3241 52.9882 20.7109 52.511 20.7109V20.7109C52.0338 20.7109 51.647 20.3241 51.647 19.8469V1.575Z" fill="black"/>
<path d="M55.1694 1.575C55.1694 1.09779 55.5563 0.710938 56.0335 0.710938V0.710938C56.5107 0.710938 56.8976 1.09779 56.8976 1.575V19.8469C56.8976 20.3241 56.5107 20.7109 56.0335 20.7109V20.7109C55.5563 20.7109 55.1694 20.3241 55.1694 19.8469V1.575Z" fill="black"/>
<path fill-rule="evenodd" clip-rule="evenodd" d="M68.1454 1.35409C67.8163 1.3421 67.495 1.51986 67.3392 1.83414L58.6042 19.4631C58.3923 19.8907 58.5672 20.4091 58.9948 20.6209C59.4224 20.8328 59.9408 20.6579 60.1527 20.2303L68.1454 4.09945L76.1382 20.2303C76.3501 20.6579 76.8684 20.8328 77.296 20.6209C77.7236 20.4091 77.8985 19.8907 77.6866 19.4631L68.9516 1.83414C68.7959 1.51986 68.4746 1.3421 68.1454 1.35409Z" fill="black"/>
<path fill-rule="evenodd" clip-rule="evenodd" d="M35.3548 1.33154C34.8776 1.33154 34.4907 1.7184 34.4907 2.19561V19.8469C34.4907 20.3241 34.8776 20.7109 35.3548 20.7109H49.221C49.6982 20.7109 50.085 20.3241 50.085 19.8469C50.085 19.3696 49.6982 18.9828 49.221 18.9828H36.2189V2.19561C36.2189 1.7184 35.832 1.33154 35.3548 1.33154Z" fill="black"/>
<path fill-rule="evenodd" clip-rule="evenodd" d="M8.64952 11.3296L15.4905 2.73523C15.7877 2.36186 15.7259 1.81826 15.3526 1.52106C14.9792 1.22387 14.4356 1.28562 14.1384 1.65899L7.84635 9.56376L1.55431 1.65899C1.25711 1.28562 0.71351 1.22387 0.34014 1.52106C-0.0332299 1.81826 -0.0949812 2.36186 0.202214 2.73523L6.92139 11.1766V19.8468C6.92139 20.324 7.30825 20.7109 7.78546 20.7109C8.26267 20.7109 8.64952 20.324 8.64952 19.8468V11.3296Z" fill="black"/>
<path fill-rule="evenodd" clip-rule="evenodd" d="M17.2749 2.22637C17.2749 1.74916 17.6618 1.3623 18.139 1.3623C18.6162 1.3623 19.003 1.74916 19.003 2.22637V12.0147C19.003 12.0612 18.9994 12.1068 18.9923 12.1513H19.0058C19.004 12.2188 19.003 12.2866 19.003 12.3548C19.003 16.1331 21.8271 18.9825 25.0566 18.9825C28.2861 18.9825 31.1102 16.1331 31.1102 12.3548C31.1102 12.2866 31.1093 12.2188 31.1075 12.1513H31.121C31.1139 12.1068 31.1102 12.0612 31.1102 12.0147V2.22637C31.1102 1.74916 31.4971 1.3623 31.9743 1.3623C32.4515 1.3623 32.8384 1.74916 32.8384 2.22637V12.0147C32.8384 12.0612 32.8347 12.1068 32.8276 12.1513H32.8361C32.8376 12.2189 32.8384 12.2868 32.8384 12.3548C32.8384 16.9696 29.3544 20.7106 25.0566 20.7106C20.7589 20.7106 17.2749 16.9696 17.2749 12.3548C17.2749 12.2868 17.2757 12.2189 17.2772 12.1513H17.2856C17.2786 12.1068 17.2749 12.0612 17.2749 12.0147V2.22637Z" fill="black"/>
</svg>
