<svg width="162" height="99" viewBox="0 0 162 99" fill="none" xmlns="http://www.w3.org/2000/svg">
<path fill-rule="evenodd" clip-rule="evenodd" d="M98.8481 55.9879C98.928 55.4171 99.2801 54.8946 99.8362 54.6208C100.108 54.4868 100.398 54.4279 100.682 54.4361C100.965 54.4279 101.255 54.4868 101.527 54.6208C102.083 54.8946 102.435 55.4171 102.515 55.9879L122.183 95.9435C122.622 96.8354 122.254 97.9143 121.363 98.3534C120.471 98.7924 119.392 98.4253 118.953 97.5333L100.682 60.4144L82.4108 97.5333C81.9718 98.4253 80.8928 98.7924 80.0009 98.3534C79.109 97.9143 78.7418 96.8354 79.1809 95.9435L98.8481 55.9879Z" fill="white"/>
<path fill-rule="evenodd" clip-rule="evenodd" d="M126.646 96.7388C126.646 97.7329 127.451 98.5388 128.446 98.5388C129.44 98.5388 130.246 97.7329 130.246 96.7388V61.7853L158.214 97.3957C158.476 98.0649 159.128 98.5388 159.89 98.5388C160.802 98.5388 161.556 97.8607 161.674 96.9812C161.797 96.6096 161.804 96.2049 161.69 95.825V56.1674C161.69 55.1733 160.884 54.3674 159.89 54.3674C158.896 54.3674 158.09 55.1733 158.09 56.1674V91.0282L130.133 55.4322C130.1 55.3895 130.065 55.3486 130.028 55.3095C129.724 54.7484 129.129 54.3674 128.446 54.3674C127.451 54.3674 126.646 55.1733 126.646 56.1674V96.7388Z" fill="white"/>
<path fill-rule="evenodd" clip-rule="evenodd" d="M41.3602 54.3674C40.3661 54.3674 39.5602 55.1733 39.5602 56.1674V96.7388C39.5602 97.7329 40.3661 98.5388 41.3602 98.5388C41.4667 98.5388 41.5712 98.5296 41.6726 98.5118C41.7741 98.5296 41.8785 98.5388 41.9851 98.5388H72.9906C73.9848 98.5388 74.7906 97.7329 74.7906 96.7388C74.7906 95.7447 73.9848 94.9388 72.9906 94.9388H43.1602V56.1674C43.1602 55.1733 42.3543 54.3674 41.3602 54.3674Z" fill="white"/>
<path fill-rule="evenodd" clip-rule="evenodd" d="M32.6613 54.6518C33.4969 54.1132 34.6108 54.3539 35.1495 55.1895C35.6881 56.025 35.4474 57.139 34.6118 57.6776L5.5361 76.4209L34.6191 95.1886C35.4544 95.7276 35.6946 96.8417 35.1555 97.677C34.6165 98.5123 33.5024 98.7524 32.6671 98.2134L3.99374 79.7101V96.7388C3.99374 97.7329 3.18785 98.5388 2.19374 98.5388C1.19963 98.5388 0.393738 97.7329 0.393738 96.7388V56.1674C0.393738 55.1733 1.19963 54.3674 2.19374 54.3674C3.18785 54.3674 3.99374 55.1733 3.99374 56.1674V73.132L32.6613 54.6518Z" fill="white"/>
<path d="M107.564 2.57838C107.564 1.58427 108.37 0.778381 109.364 0.778381V0.778381C110.358 0.778381 111.164 1.58427 111.164 2.57838V40.6419C111.164 41.636 110.358 42.4419 109.364 42.4419V42.4419C108.37 42.4419 107.564 41.636 107.564 40.6419V2.57838Z" fill="white"/>
<path d="M114.901 2.57838C114.901 1.58427 115.707 0.778381 116.701 0.778381V0.778381C117.696 0.778381 118.501 1.58427 118.501 2.57838V40.6419C118.501 41.636 117.696 42.4419 116.701 42.4419V42.4419C115.707 42.4419 114.901 41.636 114.901 40.6419V2.57838Z" fill="white"/>
<path fill-rule="evenodd" clip-rule="evenodd" d="M141.933 2.11804C141.247 2.09307 140.578 2.46337 140.253 3.11808L122.057 39.8422C121.615 40.7329 121.98 41.8128 122.871 42.2542C123.761 42.6956 124.841 42.3313 125.283 41.4405L141.933 7.83712L158.583 41.4405C159.025 42.3313 160.104 42.6956 160.995 42.2542C161.886 41.8128 162.25 40.7329 161.809 39.8422L143.612 3.11808C143.288 2.46337 142.619 2.09307 141.933 2.11804Z" fill="white"/>
<path fill-rule="evenodd" clip-rule="evenodd" d="M73.6235 2.07114C72.6294 2.07114 71.8235 2.87702 71.8235 3.87114V40.6417C71.8235 41.6359 72.6294 42.4417 73.6235 42.4417H102.509C103.503 42.4417 104.309 41.6359 104.309 40.6417C104.309 39.6476 103.503 38.8417 102.509 38.8417H75.4235V3.87114C75.4235 2.87702 74.6177 2.07114 73.6235 2.07114Z" fill="white"/>
<path fill-rule="evenodd" clip-rule="evenodd" d="M17.9927 22.8989L32.2436 4.99535C32.8627 4.21755 32.7341 3.08514 31.9563 2.46603C31.1785 1.84692 30.0461 1.97556 29.427 2.75335L16.3195 19.2204L3.21211 2.75335C2.593 1.97556 1.46059 1.84692 0.682795 2.46603C-0.0949986 3.08514 -0.223637 4.21755 0.395472 4.99535L14.3927 22.5802V40.6418C14.3927 41.6359 15.1986 42.4418 16.1927 42.4418C17.1868 42.4418 17.9927 41.6359 17.9927 40.6418V22.8989Z" fill="white"/>
<path fill-rule="evenodd" clip-rule="evenodd" d="M35.9603 3.9358C35.9603 2.94169 36.7662 2.1358 37.7603 2.1358C38.7544 2.1358 39.5603 2.94169 39.5603 3.9358V24.3266C39.5603 24.4235 39.5526 24.5185 39.5379 24.6112H39.566C39.5622 24.7518 39.5603 24.8931 39.5603 25.035C39.5603 32.9059 45.4433 38.8418 52.171 38.8418C58.8986 38.8418 64.7817 32.9059 64.7817 25.035C64.7817 24.8931 64.7797 24.7518 64.7759 24.6112H64.804C64.7893 24.5185 64.7817 24.4235 64.7817 24.3266V3.9358C64.7817 2.94169 65.5875 2.1358 66.5817 2.1358C67.5758 2.1358 68.3817 2.94169 68.3817 3.9358V24.3266C68.3817 24.4235 68.374 24.5185 68.3593 24.6112H68.3769C68.3801 24.7521 68.3817 24.8933 68.3817 25.035C68.3817 34.6485 61.1239 42.4418 52.171 42.4418C43.218 42.4418 35.9603 34.6485 35.9603 25.035C35.9603 24.8933 35.9618 24.7521 35.965 24.6112H35.9826C35.9679 24.5185 35.9603 24.4235 35.9603 24.3266V3.9358Z" fill="white"/>
</svg>
